# xmcd CD database file
#
# Track frame offsets:
#	150
#	17344
#	37606
#	53349
#	71027
#	91294
#	109871
#	125211
#	139490
#
# Disc length: 2125 seconds
#
# Revision: 0
# Processed by: cddbd v1.5.2PL0 Copyright (c) Steve Scherf et al.
# Submitted via: CDex 1.94
#
DISCID=72084b09
DTITLE=Robert Finley - Age Don't Mean a Thing
DYEAR=2016
DGENRE=Blues
TTITLE0=Robert Finley - I Just Want to Tell You
TTITLE1=Robert Finley - Age Don't Mean a Thing
TTITLE2=Robert Finley - Let Me Be Your Everything
TTITLE3=Robert Finley - It's Too Late
TTITLE4=Robert Finley - Snake in My Grass
TTITLE5=Robert Finley - Come On
TTITLE6=Robert Finley - Make It with You
TTITLE7=Robert Finley - You Make Me Want to Dance
TTITLE8=Robert Finley - Is It Possible to Love 2 People
EXTD=YEAR: 2016
EXTT0=
EXTT1=
EXTT2=
EXTT3=
EXTT4=
EXTT5=
EXTT6=
EXTT7=
EXTT8=
PLAYORDER=
